<svg width="77" height="136" viewBox="0 0 77 136" fill="none" xmlns="http://www.w3.org/2000/svg">
<path d="M48.4315 2.83862C46.3098 2.17153 43.8429 1.98159 40.7878 2.32672C40.4982 2.36373 40.2057 2.28537 39.9734 2.10855C39.7411 1.93173 39.5877 1.67065 39.5462 1.38167C39.5312 1.2384 39.5448 1.09357 39.5861 0.955581C39.6275 0.81759 39.6958 0.689179 39.7872 0.577792C39.8785 0.466404 39.9911 0.374254 40.1183 0.306683C40.2455 0.239111 40.3849 0.197462 40.5283 0.184148C43.8175 -0.188775 46.6225 0.0011611 49.1241 0.786383C51.6326 1.57392 53.7613 2.93358 55.7255 4.80283C59.0841 7.99236 61.1989 12.2451 62.0119 16.6043C63.0079 21.9573 60.8074 26.8053 60.8074 32.0864C60.8074 33.9626 62.7138 35.1462 63.8186 36.448C65.7458 38.7179 63.5175 44.5017 62.7369 46.8759C61.9146 49.3775 60.5897 52.7477 60.46 55.3952V55.4254C60.9789 56.4214 62.2134 56.9773 63.0079 57.7416C65.8732 60.505 66.7765 64.5376 66.7765 68.0931C66.7765 70.7036 65.6392 72.6331 63.6634 74.2313C62.6906 75.0165 61.6761 75.7184 60.5781 76.316C60.5758 77.3907 60.5689 79.7117 60.555 82.336C60.5443 85.7019 60.5034 89.0676 60.4322 92.4327C60.321 96.4561 60.9395 101.267 61.5301 105.277C61.7039 106.465 61.8915 107.558 62.0351 108.353C62.1995 109.256 63.5661 109.047 64.3861 109.321C65.7458 109.775 66.7047 110.727 67.1193 112.1C67.6961 114.027 68.3169 115.938 68.7685 117.9C69.4287 120.784 72.3449 121.213 74.2002 123.001C75.2518 124.015 75.6479 125.931 76.2085 127.274C77.589 130.591 72.3148 131.597 70.1931 132.335C63.8094 134.559 57.4234 134.744 50.7154 134.652C50.571 134.652 50.4279 134.624 50.2943 134.57C50.1607 134.515 50.0393 134.434 49.9368 134.333C49.8344 134.231 49.7531 134.11 49.6975 133.977C49.6419 133.843 49.6131 133.701 49.6128 133.556C49.6255 133.265 49.7517 132.991 49.9643 132.792C50.177 132.593 50.4591 132.486 50.7501 132.493C57.1176 132.581 63.2303 132.472 69.292 130.355C69.878 130.149 74.5129 129 74.1284 128.078C73.6258 126.864 73.1602 125.611 72.5371 124.453C71.2724 123.355 69.563 122.887 68.2636 121.817C67.1634 120.914 66.89 119.719 66.5889 118.396L66.5704 118.317C66.1349 116.418 65.5281 114.565 64.9675 112.7C64.5714 111.385 63.1886 111.172 62.0027 111.012C60.4785 110.808 60.1195 110.321 59.83 108.723C59.684 107.912 59.4918 106.798 59.3134 105.58C58.7066 101.464 58.0789 96.5094 58.1947 92.3748C58.2595 90.1025 58.2943 85.9355 58.3151 82.3221C58.3313 79.619 58.3383 77.2355 58.3383 76.2117C58.3383 75.6512 58.3568 75.0328 58.922 74.7363C61.4606 73.0685 64.5367 71.5792 64.5367 68.0931C64.5367 64.8017 63.6889 61.45 61.4236 59.2681C60.4299 58.3091 59.1166 57.6606 58.4587 56.3912C57.3793 54.3089 59.8694 48.4556 60.5642 46.3385C61.0344 44.9071 63.3021 39.2484 62.086 37.8146C60.592 36.0542 58.5676 34.6413 58.5676 32.0864C58.5676 26.9605 60.7727 22.1634 59.8091 16.9865C59.0679 13.0094 57.1431 9.1783 54.1551 6.33853C52.3854 4.6569 50.5463 3.50108 48.4315 2.83862Z" fill="#FF73E5"/>
<path fill-rule="evenodd" clip-rule="evenodd" d="M56.0526 33.1844C58.1234 23.7038 59.4413 5.91469 42.412 3.1722C28.088 0.865175 22.156 19.7429 20.1038 30.5345L16.078 34.8567L12.7889 55.0154C11.4478 55.6176 8.76552 57.8251 8.76552 61.8577C8.76552 65.8881 10.2294 68.5773 10.959 69.4181C10.3499 73.4971 9.49747 82.6673 10.959 86.6976C11.7003 88.736 13.5139 90.3041 15.946 91.5201L15.3762 112.997L10.292 114.424L7.74867 122.239L5.20538 123.077L1.81665 128.961C7.30394 130.281 21.9313 133.711 36.561 134.001C51.1907 134.288 65.8204 129.32 71.3054 127.279L70.4576 124.145L66.2211 120.557L63.6778 114.676C62.8301 112.997 61.4588 111.605 60.2891 111.317C59.0429 111.009 58.538 112.11 57.8338 109.946L57.4076 108.663C56.5298 106.069 55.5777 84.3003 55.2141 73.738C55.2141 73.738 57.044 73.6662 58.5032 73.379C60.3331 73.0176 63.2586 69.4181 63.2586 65.1098C61.9846 60.0672 58.5241 57.5471 55.2141 57.5471C57.1273 49.5119 59.1865 42.7159 59.4413 41.5832C60.1733 38.3428 58.2461 34.0321 56.0526 33.1821V33.1844ZM49.2705 75.1926C47.0306 84.1196 46.44 92.0575 45.8794 92.6111C44.4179 94.0495 36.9779 93.9152 28.9311 92.8358C25.2066 92.3355 21.1067 91.4553 17.9149 90.3157C18.8553 94.6911 22.932 102.9 32.1693 105.784C44.1677 109.529 47.3248 106.398 48.4227 103.757L49.2705 75.1926Z" fill="white"/>
<path fill-rule="evenodd" clip-rule="evenodd" d="M20.8959 29.7262C17.8616 32.3065 16.2471 32.5474 16.5506 35.54C16.583 35.8574 17.6856 38.8176 17.5281 39.4986C16.9328 42.0558 16.4556 44.6408 15.8487 47.1956C15.3947 49.1019 15.763 49.9775 17.0185 49.9775C18.8205 49.9775 18.5264 47.3809 20.3447 47.3809C23.9951 48.6016 22.4293 53.6581 19.9625 54.119C19.9625 54.119 19.2143 54.1885 18.3642 54.119C16.7614 53.9893 17.6369 49.9034 15.8348 51.124C15.2187 51.541 9.27742 59.9213 9.26121 61.4315C9.21488 66.041 12.365 68.2692 14.2968 61.918C15.0265 61.2138 15.5615 61.918 15.5615 61.918C15.7561 62.6152 16.0364 63.1386 16.3352 63.3656C17.6323 64.3524 18.3596 65.082 18.626 66.3907C19.0197 68.3387 18.707 70.2798 17.667 72.1397C16.8725 73.5573 15.2303 73.0037 14.2065 71.878C14.2065 71.878 11.6169 78.3984 11.5705 79.7812C11.471 82.7553 12.5434 85.0693 12.4299 88.1291C12.3975 88.9977 12.4577 89.1575 13.0553 89.7528C13.8729 90.5705 15.0195 92.4119 15.8348 92.5671C15.8696 99.8032 15.8348 105.295 15.038 114.827C15.038 114.827 10.7737 114.537 10.2225 115.03C9.32375 115.837 8.54084 120.916 8.54084 120.916L11.5057 122.028C9.74531 122.605 6.56041 122.728 5.05946 123.612C3.94301 124.27 1.81665 128.484 1.81665 128.484C6.2176 132.884 15.9113 131.951 21.79 132.884C25.0861 133.406 36.2599 134.015 36.2599 134.015C36.6444 131.807 37.4505 130.656 37.8118 128.433C41.3418 128.433 57.1667 127.488 57.1667 122.294C57.1667 121.94 56.7892 121.762 56.0456 121.762C49.377 123.807 43.5956 123.807 39.1483 124.231V120.117C45.7173 120.089 53.9332 119.123 61.3777 115.649C62.1421 115.311 63.7936 113.414 61.8642 112.191C60.7686 111.496 59.117 112.659 58.0261 112.923C56.4742 113.3 51.9481 114.655 49.9839 114.827C49.9839 102.249 50.0071 88.1963 50.6881 75.5887C52.321 75.8296 54.225 76.1562 55.8325 75.7184C56.4695 75.5447 56.993 74.3981 57.1158 72.9088L57.2084 71.7738C55.7492 70.7199 52.8538 70.9353 52.8492 65.9553C52.8422 60.9752 57.9473 61.4315 57.9473 61.4315C60.7709 58.9508 54.6883 56.8407 52.8561 56.8407C48.9393 56.8407 45.0919 60.5907 43.9245 63.9795C42.7802 67.2964 42.4398 72.2973 45.0687 74.961C45.2911 75.188 45.3143 75.957 45.1938 79.531C45.1938 83.1792 45.3374 87.3138 44.7514 89.0973C44.1654 90.8809 43.0744 91.409 41.9232 90.8507C36.1557 88.048 29.5936 87.4018 23.2771 87.3369C20.4049 87.3068 17.9658 87.2327 17.8616 87.1678C16.7451 86.5031 18.582 85.8916 18.9618 85.8499C20.6875 85.6646 26.9878 85.6507 33.0055 85.8244C40.4871 86.0398 35.3148 83.6123 30.5085 82.892C27.1383 82.387 21.9684 82.2805 19.1958 82.7368C18.1141 82.9151 17.2084 82.9823 17.1157 82.892C16.9467 82.7298 17.667 76.9484 17.667 76.9484C17.667 76.9484 22.7744 77.5274 25.1023 71.878C27.3538 67.2547 24.7549 61.8091 19.8559 60.3475C18.7209 60.007 18.626 59.9375 18.626 59.4534C18.626 58.7863 18.8923 58.5848 19.9648 58.4551C22.1768 58.1818 25.144 54.932 25.9153 52.9377C27.0689 49.9543 25.6559 46.1741 22.244 45.7086C21.5955 45.6182 20.9724 45.4607 20.8635 45.3542C20.0783 44.5944 21.4426 40.5455 21.6117 39.4708C21.7622 38.5188 23.24 38.6277 23.9951 38.4979C31.3586 37.2448 38.4071 39.1697 45.5552 40.4158C48.527 40.9347 52.4392 42.0048 55.1539 43.2927C56.0595 43.7235 61.2967 44.9836 60.2497 42.3198C59.0244 39.2021 47.3549 36.8904 44.5105 36.2465C37.9786 34.771 31.0992 33.2562 24.4584 34.2476C23.43 34.4977 22.244 34.7039 22.244 34.7039C22.244 34.7039 23.1149 33.6476 24.4584 32.3065C26.2581 30.5091 26.33 30.4928 32.3338 30.4697C39.3684 30.4442 45.9837 32.0216 52.4971 34.7039C53.5857 35.1532 54.6698 35.5609 55.7445 36.0658C57.0463 36.6773 58.2345 37.1777 58.3851 37.1777C58.8136 37.1777 59.1379 36.6681 59.0105 36.1817C58.9086 35.7879 57.0694 33.7218 55.8325 32.7651C51.6586 29.5385 46.2338 27.704 40.4709 26.9443C27.4001 25.2256 32.3361 6.94775 32.3361 6.94775C23.9303 11.5757 24.5696 27.1226 20.8936 29.7262H20.8959ZM20.8959 93.936C20.5624 93.936 20.5207 94.0171 20.6272 94.4456C21.8688 99.4928 28.2293 102.509 32.8665 103.75C35.6669 104.501 43.8272 105.751 46.1667 103.512C47.253 102.476 46.5929 97.3688 46.6485 95.7775C39.4911 97.7093 27.9212 96.6183 20.8936 93.9384L20.8959 93.936Z" fill="black"/>
<path fill-rule="evenodd" clip-rule="evenodd" d="M28.1553 6.30381C23.7312 10.853 19.8514 20.6023 19.8514 27.206C19.8514 28.209 19.7912 28.2947 17.3869 30.8287C13.609 34.4884 14.5703 38.2663 14.5703 38.2663C14.5703 38.2663 14.6768 38.8871 14.2414 41.1732C13.9982 42.4426 13.8129 44.5851 13.609 45.4561C13.2699 46.9066 12.9456 48.3605 12.6362 49.8176C12.0224 52.7315 11.4294 53.2573 10.7623 53.9592C8.08235 56.7781 7.38978 58.916 7.39209 61.6168C7.39441 62.8792 8.48539 64.6975 9.06909 65.5036C9.40959 65.9761 9.48139 66.3699 9.52772 68.0723C9.56014 69.1772 9.72692 70.6897 9.90296 71.431C10.1948 72.6679 10.1971 72.9551 9.93538 74.9286C9.59952 77.4556 9.56941 81.2289 9.85431 85.0276C10.1462 88.9143 10.2133 89.0278 13.5905 91.4205L15.1702 92.5393L15.0474 95.0756C14.9779 96.47 14.788 98.7423 14.6259 100.125C14.334 102.59 14.3433 104.248 14.6791 109.752L14.795 111.658H14.2205C13.1272 111.658 10.6442 112.751 9.6389 113.678C8.79114 114.458 8.66143 114.685 8.31861 116.031C7.70711 118.417 7.35735 120.207 7.41989 120.645C7.47085 121.011 7.37125 121.062 6.43315 121.164C4.70288 121.347 4.32533 121.667 3.3826 123.751C3.03516 124.516 2.39354 125.743 1.95576 126.471C0.864791 128.289 0.598419 129.308 1.00145 130.14C1.55041 131.272 2.81279 131.622 10.1207 132.683C11.5753 132.896 13.4886 133.225 14.3711 133.417C15.2559 133.609 16.912 133.936 18.054 134.147C24.1922 135.275 24.4446 135.31 30.4299 135.856C34.7336 136.248 44.0451 135.796 47.4616 135.032C48.1194 134.883 49.127 134.71 49.6968 134.645C50.2689 134.578 51.2881 134.406 51.9645 134.265L55.5547 133.51C56.8518 133.239 58.4663 132.857 59.1426 132.66C61.3593 132.018 66.022 130.853 66.8883 130.728C68.3476 130.513 70.9187 129.774 71.9031 129.28C73.1701 128.648 73.3948 128.192 73.2535 126.533C73.0914 124.606 72.6466 123.879 70.3836 121.813C68.2132 119.83 67.7778 119.14 66.7308 116.031C65.9085 113.592 65.1557 112.114 64.4354 111.514C63.8957 111.067 62.0704 110.217 60.9841 109.909C59.3789 109.453 59.409 109.532 58.6817 104.218C58.5335 103.143 58.3621 100.38 58.2972 98.0799C58.2347 95.7752 58.0934 93.0975 57.9868 92.127C57.878 91.1542 57.7668 86.9015 57.739 82.6742L57.6857 74.9911C62.9414 74.8799 64.7666 70.3631 65.26 65.5823C65.7325 61.0007 61.4613 57.9247 57.6301 56.3565C57.6301 54.617 59.4276 47.9391 60.1989 45.1364C62.8696 44.6431 61.8689 38.4377 61.1439 36.6125C60.5481 35.0546 59.6526 33.6286 58.508 32.4154C60.2429 21.7512 61.3176 8.46028 50.1856 2.81548C43.8389 -0.404167 33.7283 0.570992 28.1576 6.30381H28.1553ZM44.3902 7.46427C51.6078 10.2322 53.3195 11.6336 54.3503 19.6711C54.9131 24.0559 53.9796 28.0793 53.6646 32.4154C53.565 33.8051 54.9108 34.6714 55.3694 34.9656C56.472 35.679 57.7042 38.2431 57.6324 41.4975C55.9647 42.1461 55.1656 43.295 54.9108 45.1364C54.4429 48.5321 51.8116 55.4115 52.9721 58.8975C53.5697 59.6295 55.4227 60.468 57.1437 61.1976C61.4914 62.1426 62.1955 67.3543 59.4276 70.2311C58.5126 71.1831 55.6821 71.5375 54.5865 71.8618C54.1117 72.0008 53.5488 72.2787 53.3357 72.4756C52.9535 72.8277 52.9466 72.9852 52.9721 81.6365C52.9836 86.6235 52.8493 91.7657 52.9721 92.9261C53.0879 94.0518 53.2662 97.1487 53.3705 99.8102C53.5071 103.338 53.6808 105.376 54.0144 107.343C54.5008 110.224 54.6143 110.532 55.6381 111.783C56.3562 112.663 58.7118 112.765 60.2035 113.203C61.6164 113.613 62.3113 114.016 62.6124 114.593C62.7561 114.871 63.1915 116.064 63.576 117.24C63.9605 118.417 64.3381 119.464 64.4122 119.566C64.4886 119.668 64.7898 120.321 65.0839 121.018C65.4638 121.919 65.7997 122.406 66.249 122.707C67.523 123.559 69.7211 125.792 69.7211 126.232C69.7211 126.624 69.5521 126.695 67.7847 127.089C64.8477 127.74 61.5076 128.544 59.6152 129.056C56.1014 130.005 50.8318 131.138 48.3742 131.469C47.647 131.578 46.9226 131.705 46.2015 131.849C41.2285 132.838 30.189 132.838 24.2894 131.844C20.6505 131.235 17.2317 130.605 15.696 130.265C13.8893 129.866 10.1346 129.241 8.42285 129.056C7.61818 128.958 6.81827 128.824 6.02549 128.655L4.76311 128.377L5.40009 127.311C5.74753 126.723 6.09034 126.021 6.15983 125.748C6.38683 124.861 7.00991 124.414 8.54792 124.039C9.79177 123.733 10.1091 123.714 10.7855 123.916C12.3258 124.37 19.3001 125.597 20.3795 125.607C21.4265 125.611 22.7977 125.271 23.085 124.935C23.4324 124.52 23.0039 123.823 22.133 123.385C21.4149 123.026 19.2307 122.419 16.4025 121.799C13.0438 121.06 12.5157 120.932 11.6726 120.659C10.9986 120.441 10.7901 120.288 10.8503 120.057C10.8966 119.89 11.1283 118.929 11.3692 117.924C11.8486 115.908 12.0965 115.607 12.9906 115.959C14.385 116.508 21.6095 117.794 23.3073 117.796C24.6624 117.796 25.5703 117.483 25.7834 116.939C25.927 116.569 25.9873 116.633 25.026 116.156C24.2084 115.751 23.1591 115.466 19.7565 114.725C16.4951 114.016 16.8101 114.155 17.1205 113.567C17.2711 113.284 17.3915 112.983 17.3938 112.895C17.3938 112.811 17.5652 112.527 17.7714 112.267C18.2231 111.702 18.2532 110.748 17.9335 106.986C17.7668 105.029 17.7691 103.79 17.9451 101.675C18.7188 92.3517 18.7303 91.8884 18.186 90.8901C17.9544 90.4639 16.7152 89.3336 16.4789 89.3336C16.2473 89.3336 14.1835 87.3902 14.1835 87.1748C14.1835 87.0682 15.0544 86.6189 16.1199 86.1765C17.1854 85.734 18.3898 85.1156 18.7952 84.8029L19.5341 84.2331L18.9828 84.0015C18.2231 83.6818 16.7314 83.7003 15.4991 84.0408C15.0648 84.1656 14.626 84.2738 14.1835 84.3651C13.7665 84.423 13.5696 78.6068 13.9287 76.814C14.0676 76.1145 14.1835 75.2366 14.1858 74.8591C14.1904 74.0901 14.3201 73.826 14.788 73.6569C14.9617 73.5944 15.2466 73.3326 15.418 73.0732C15.7192 72.6215 15.7029 72.5497 15.0173 71.1553C14.0746 69.2421 13.9472 67.667 14.5703 65.675C14.8065 64.9268 15.2049 64.0049 15.4597 63.6251C15.8303 63.0691 15.8952 62.8005 15.7956 62.2167C15.6751 61.508 15.6867 61.4894 16.4395 61.1976C17.1089 60.9405 17.2039 60.827 17.2039 60.3174C17.2039 59.831 17.0997 59.692 16.5507 59.4673C15.4551 59.0156 14.9687 59.1199 14.0885 59.9885C13.477 60.5907 13.2546 60.9775 13.1504 61.6168C12.9836 62.6406 12.2795 64.2018 11.9784 64.2111C11.8579 64.218 11.7027 63.9493 11.6355 63.6158C11.5554 63.2356 11.4478 62.8617 11.3136 62.497C11.0148 61.735 11.5846 59.9584 12.6362 58.3717C13.1156 57.649 13.5534 57.0167 13.609 56.9657C13.6646 56.9148 14.1997 56.3542 14.7973 55.7242C15.6497 54.8208 15.8859 54.4433 15.8975 53.9569C15.9114 53.2967 16.6017 51.6174 16.6248 52.1803C16.648 52.764 17.5444 54.295 18.1536 54.8023C18.8948 55.4138 19.5434 55.4231 20.141 54.8347C20.7247 54.2603 20.7247 53.9244 20.134 52.8335C19.5549 51.7656 19.5434 51.168 20.0645 49.6648C20.4398 48.5877 21.6002 46.7347 21.9013 46.7347C22.1121 46.7347 23.2494 45.6553 23.2494 45.4561C23.2494 45.0785 22.6379 44.6871 22.0565 44.6917C18.8786 44.6917 17.2966 48.2217 17.2966 48.2217C17.7505 45.4514 18.8786 41.1732 19.0847 38.5651C19.1496 38.4609 20.0112 38.2478 20.9957 38.0926C23.539 37.6895 25.6514 37.1128 26.2907 36.6472C26.5918 36.4249 26.8397 36.1863 26.8397 36.1145C26.8397 36.0427 26.5478 35.73 26.1911 35.4196C24.9866 34.3796 23.1475 34.2568 19.4044 34.9656C18.911 35.0582 18.8809 35.0351 19.0639 34.6992C19.4553 33.9789 21.2875 32.3134 22.0287 32.0054C22.441 31.834 23.9906 31.3105 25.4731 30.8426C29.2671 29.6451 29.6354 27.7967 25.4731 27.7967C25.4661 25.075 26.2259 22.8027 26.9949 20.2502C29.3992 12.2798 32.7925 5.14103 44.3902 7.46427Z" fill="#323239"/>
</svg>
